<svg width="17" height="17" viewBox="0 0 17 17" xmlns="http://www.w3.org/2000/svg">
  <path d="M16.9495 8.55953C16.9155 9.76856 16.9074 10.9787 16.8403 12.1862C16.769 13.4675 16.3405 14.6108 15.355 15.5027C14.5959 16.1895 13.6872 16.5472 12.6841 16.6469C11.8907 16.7257 11.0904 16.7542 10.2924 16.7616C8.80508 16.7751 7.31701 16.777 5.82973 16.7434C5.10578 16.7272 4.36701 16.6947 3.66411 16.5406C1.64117 16.0972 0.36246 14.6622 0.12816 12.608C0.0349856 11.7918 0.0151032 10.9648 0.00691632 10.1425C-0.00750817 8.68159 0.00223811 7.22034 0.0213408 5.75947C0.0318668 4.94946 0.0509695 4.13598 0.288779 3.34992C0.83574 1.54257 2.0743 0.476464 3.93038 0.177877C4.82859 0.0334127 5.75371 0.0245286 6.66752 0.0110091C8.14194 -0.0110082 9.61714 0.00367002 11.0916 0.0229835C11.9414 0.0341853 12.7948 0.0534987 13.6178 0.310368C15.4045 0.868527 16.4516 2.09107 16.7444 3.89649C16.8918 4.80538 16.8804 5.74131 16.9159 6.66643C16.9401 7.29643 16.9206 7.92798 16.9206 8.55876C16.93 8.55876 16.9397 8.55915 16.9495 8.55953ZM1.50784 8.38455C1.51759 8.38455 1.52773 8.38494 1.53747 8.38494C1.53747 9.06091 1.52383 9.73688 1.54137 10.4121C1.55891 11.0869 1.57841 11.764 1.64819 12.4346C1.79789 13.8746 2.74055 14.8828 4.17754 15.096C4.90617 15.2041 5.65157 15.2265 6.38995 15.2377C7.7669 15.259 9.14425 15.2547 10.5212 15.2393C11.1956 15.2316 11.8732 15.2072 12.543 15.1346C14.0232 14.9739 15.0099 14.0654 15.2353 12.613C15.3472 11.8919 15.3686 11.1526 15.3768 10.421C15.3943 8.91529 15.3873 7.40922 15.3659 5.90355C15.3573 5.30676 15.3312 4.70341 15.2314 4.11666C15.0287 2.92425 14.3468 2.10111 13.1496 1.76506C12.778 1.66077 12.3851 1.59046 12.0003 1.58351C10.1044 1.54952 8.20782 1.53214 6.31159 1.53059C5.66989 1.53021 5.02508 1.56381 4.38767 1.6345C3.3877 1.74574 2.56512 2.1803 2.04974 3.07451C1.73396 3.62301 1.6131 4.23023 1.59283 4.85328C1.55501 6.02986 1.53513 7.20721 1.50784 8.38455Z" />
  <path d="M8.46201 12.6917C6.09405 12.7029 4.13115 10.7828 4.11361 8.43774C4.09567 6.02935 6.0348 4.07946 8.45109 4.0756C10.8479 4.07174 12.8003 5.99073 12.8092 8.35972C12.819 10.755 10.8865 12.6801 8.46201 12.6917ZM8.44798 11.1694C9.99374 11.1714 11.2693 9.93724 11.2724 8.4362C11.276 6.86215 10.0405 5.60021 8.49476 5.59866C6.92327 5.59712 5.65079 6.82854 5.65001 8.35122C5.64962 9.91909 6.88896 11.1675 8.44798 11.1694Z" />
  <path d="M12.971 4.91883C12.4053 4.91883 11.9601 4.47578 11.959 3.91221C11.9582 3.35173 12.4065 2.90443 12.9706 2.90289C13.5429 2.90134 13.9987 3.35482 13.9944 3.92109C13.9901 4.48003 13.5398 4.91883 12.971 4.91883Z" fill="#434343"/>
</svg>
