<svg width="17" height="17" viewBox="0 0 17 17" xmlns="http://www.w3.org/2000/svg">
  <path d="M0.273674 5.59329H3.79924V16.8438H0.273674V5.59329ZM2.04451 0C3.1714 0 4.08902 0.910907 4.08902 2.02957C4.08902 3.14822 3.1714 4.05913 2.04451 4.05913C0.917614 4.05913 0 3.14822 0 2.02957C0 0.910907 0.917614 0 2.04451 0Z"/>
  <path d="M6.02082 5.59329H9.40151V7.12745H9.4498C10.142 5.96084 11.4138 5.25769 12.7822 5.30563C16.34 5.30563 17 7.63883 17 10.6592V16.8278H13.4744V11.3783C13.4744 10.0679 13.4583 8.38993 11.6392 8.38993C9.80397 8.38993 9.53029 9.81223 9.53029 11.2825V16.8438H6.02082V5.59329Z"/>
</svg>
