<svg width="20" height="16" viewBox="0 0 20 16" xmlns="http://www.w3.org/2000/svg">
  <path d="M20 1.8972C19.2543 2.22004 18.4638 2.44017 17.6435 2.52822C18.4937 2.02927 19.135 1.22216 19.4482 0.29764C18.6428 0.767235 17.7629 1.10476 16.8382 1.28085C15.2871 -0.348053 12.692 -0.436101 11.0365 1.09008C9.96271 2.08797 9.51529 3.55545 9.8434 4.96424C6.54735 4.80282 3.47502 3.26196 1.38702 0.737885C0.298285 2.58692 0.865026 4.94956 2.65474 6.12355C2.01342 6.10888 1.37211 5.94745 0.805369 5.62461C0.805369 5.63928 0.805369 5.65396 0.805369 5.68331C0.805369 7.60571 2.17748 9.26397 4.10142 9.64551C3.48993 9.80694 2.84862 9.82161 2.23714 9.70421C2.77405 11.3478 4.31022 12.4778 6.0701 12.5071C4.62342 13.6371 2.81879 14.2387 0.98434 14.2387C0.656227 14.2387 0.328113 14.2241 0 14.18C1.87919 15.3687 4.05667 15.9997 6.29381 15.9997C12.692 16.0437 17.9269 10.9662 17.9717 4.67074C17.9717 4.61204 17.9717 4.56802 17.9717 4.50932C17.9717 4.33322 17.9717 4.15712 17.9567 3.98102C18.7472 3.42338 19.4482 2.70431 20 1.8972Z" />
</svg>
